 <svg  version="1.0" xmlns="http://www.w3.org/2000/svg"  width="147.000000pt" height="231.000000pt" viewBox="0 0 147.000000 231.000000"  preserveAspectRatio="xMidYMid meet">  <g transform="translate(0.000000,231.000000) scale(0.100000,-0.100000)" fill="#ffffff" stroke="none"> <path d="M995 2200 c-137 -44 -407 -128 -600 -187 l-350 -108 -3 -937 -2 -936 122 39 c68 21 140 44 162 50 l38 10 -3 392 -4 391 90 29 90 28 16 -20 c30 -37 39 -139 39 -443 0 -228 3 -297 13 -301 11 -4 672 201 745 232 17 7 45 28 61 46 48 55 55 110 48 374 -7 289 -15 323 -90 395 -30 28 -47 50 -40 53 29 11 79 51 91 73 11 20 12 99 8 401 -5 421 -5 418 -75 464 -65 43 -84 41 -356 -45z m129 -402 c24 -34 23 -219 -1 -240 -20 -16 -103 -52 -145 -62 -14 -3 -33 -9 -42 -12 -14 -5 -16 11 -16 143 l0 149 63 21 c84 29 122 29 141 1z m-566 -154 c20 -14 22 -23 22 -119 0 -57 -3 -111 -6 -120 -8 -20 -62 -48 -136 -69 -32 -9 -65 -19 -74 -23 -15 -6 -16 6 -12 141 3 80 7 149 10 151 4 5 154 53 168 54 3 1 16 -6 28 -15z m559 -541 c13 -20 19 -53 21 -127 4 -93 2 -104 -20 -136 -24 -35 -96 -72 -168 -87 l-30 -6 2 169 3 168 70 22 c92 29 101 29 122 -3z"/> </g> </svg> 