<svg version="1.0" xmlns="http://www.w3.org/2000/svg" width="169pt" height="340" viewBox="0 0 169 255"><path d="M50 18.7c-3 9.7-5.6 18.2-5.8 19-.3 1.1 4.2 1.3 24.5 1.3 20.9 0 25.2.2 27.1 1.6 2.8 1.9 2.8 2.5-.4 12.5-1.7 5.3-3.6 9.3-5.4 11.1L87.2 67H61.1c-23.9 0-26 .1-26.5 1.7-.3 1-7.9 25.7-17 55C8.4 152.9 1 177.5 1 178.4c0 1.5 1.8 1.6 16.3 1.4l16.2-.3L45 142.2 56.5 105h8.2c9.3 0 11.3 1.1 11.3 6.3 0 2.3-17 57.5-20.7 67.5-.4.9 5 1.2 25.1 1.2 24.2 0 25.6.1 26.6 1.9.5 1.1 1 3.3 1 5 0 4.7-4.8 18.8-7.5 21.8l-2.3 2.8-26.3.5-26.3.5-6.2 19.5c-3.5 10.7-6.3 20.3-6.3 21.3-.1 1.7 2 1.8 39.7 1.5 35.6-.3 40-.5 42.9-2 6.1-3.4 8.3-7.8 16-32.6 6.9-21.8 7.4-24.3 7.1-30.7-.3-4.8-1.2-8.7-3-12.6l-2.6-5.6 4.6-1.4c2.6-.8 5.4-2.5 6.5-4 1-1.5 6.8-18.4 12.9-37.5 11.8-37.7 12.1-39.4 7.7-45.9-4.2-6.1-5.8-6.5-25.3-6.5-12.8 0-17.6-.3-17.6-1.2 0-.6 4.1-14 9.1-29.7 10.5-33 10.7-35.1 4.5-40.8L132 1H55.5L50 18.7zm76 96.3c4.6 2.5 4.6 6-.2 18.7-2.6 7.1-5.1 8.3-16.7 8.3h-9l3-8.7c1.8-5.3 2.9-10.7 2.9-14V114h9.1c5 0 9.9.5 10.9 1z"/></svg>